<svg width="512" height="512" viewBox="0 0 512 512" fill="none" xmlns="http://www.w3.org/2000/svg">
  <rect width="512" height="512" rx="112" fill="#0F766E"/>
  <path d="M128 334C128 256.7 190.7 194 268 194H388V256H268C224.9 256 190 290.9 190 334C190 377.1 224.9 412 268 412H342V474H268C190.7 474 128 411.3 128 334Z" fill="#F7FAF9"/>
  <path d="M149 132C149 80.1 191.1 38 243 38H274C325.9 38 368 80.1 368 132V392H306V132C306 114.3 291.7 100 274 100H243C225.3 100 211 114.3 211 132V392H149V132Z" fill="#FDBA74"/>
  <path d="M235 138H282V212H235V138Z" fill="#0B635D"/>
  <circle cx="370" cy="224" r="48" fill="#F97316"/>
  <path d="M370 184L385 222H355L370 184Z" fill="#F7FAF9"/>
</svg>
